<svg enable-background="new 0 0 512 512" id="Layer_1" version="1.1" viewBox="0 0 512 512" xml:space="preserve" xmlns="http://www.w3.org/2000/svg" xmlns:xlink="http://www.w3.org/1999/xlink"><g><g><linearGradient gradientUnits="userSpaceOnUse" id="SVGID_1_" x1="-0.0000027" x2="512" y1="256" y2="256"><stop offset="0" style="stop-color:#F67950"></stop><stop offset="1" style="stop-color:#F15A29"></stop></linearGradient><circle cx="256" cy="256" fill="url(#SVGID_1_)" r="256"></circle><linearGradient gradientUnits="userSpaceOnUse" id="SVGID_2_" x1="42.6666641" x2="469.3333435" y1="256.0005188" y2="256.0005188"><stop offset="0" style="stop-color:#F15A29"></stop><stop offset="1" style="stop-color:#F67950"></stop></linearGradient><path d="M256,469.3338623c-117.6309967,0-213.3333435-95.7023926-213.3333435-213.3333435    c0-117.6314545,95.7023392-213.333313,213.3333435-213.333313c117.6362,0,213.3333435,95.7018661,213.3333435,213.333313    C469.3333435,373.6314697,373.6362,469.3338623,256,469.3338623z" fill="url(#SVGID_2_)"></path></g><g id="XMLID_104_"><rect height="240" id="XMLID_107_" opacity="0.3" transform="matrix(6.123234e-17 -1 1 6.123234e-17 -95.8701324 623.8701172)" width="48.2597351" x="239.8701324" y="239.8701324"></rect><rect height="240" id="XMLID_106_" opacity="0.3" transform="matrix(6.123234e-17 -1 1 6.123234e-17 -0.0002667 528.0002441)" width="48.2597351" x="239.8701324" y="144.0002594"></rect><rect height="240" id="XMLID_105_" opacity="0.3" transform="matrix(6.123234e-17 -1 1 6.123234e-17 95.8703995 432.1296082)" width="48.259201" x="239.8704071" y="48.1295967"></rect></g><g id="XMLID_181_"><rect fill="#FFFFFF" height="240" id="XMLID_183_" transform="matrix(6.123234e-17 -1 1 6.123234e-17 -95.8701324 607.8701172)" width="48.2597351" x="231.8701324" y="231.8701324"></rect><rect fill="#FFFFFF" height="240" id="XMLID_184_" transform="matrix(6.123234e-17 -1 1 6.123234e-17 -0.0002667 512.0002441)" width="48.2597351" x="231.8701324" y="136.0002594"></rect><rect fill="#FFFFFF" height="240" id="XMLID_190_" transform="matrix(6.123234e-17 -1 1 6.123234e-17 95.8703995 416.1296082)" width="48.259201" x="231.8704071" y="40.1295967"></rect></g></g></svg>